<?xml version="1.0" encoding="utf-8"?>
<!-- Generator: Adobe Illustrator 23.0.1, SVG Export Plug-In . SVG Version: 6.00 Build 0)  -->
<svg version="1.1" id="Layer_1" xmlns="http://www.w3.org/2000/svg" xmlns:xlink="http://www.w3.org/1999/xlink" x="0px" y="0px"
	 viewBox="0 0 512 512" style="enable-background:new 0 0 512 512;" xml:space="preserve">
<style type="text/css">
	.st0{fill:#0D5EAF;}
	.st1{fill:#FFFFFF;}
</style>
<rect x="-534.6" y="-512" class="st0" width="512" height="512"/>
<g>
	<path class="st1" d="M-22.6-57.2h-512V-114h512V-57.2z M-22.6-170.9h-512v-56.9h75.9v-113.7h-75.9v-56.9h75.9V-512h37.9v113.7h75.9
		v56.9h322.4v56.9H-345v-56.9h-75.9v113.7h398.2V-170.9z M-22.6-398.3H-345v-56.9h322.4V-398.3z"/>
</g>
<rect x="-531.6" y="0" class="st0" width="113.8" height="113.7"/>
<rect x="-360.9" y="0" class="st0" width="113.8" height="113.7"/>
<rect y="0" class="st0" width="108" height="108"/>
<rect x="167.3" y="0" class="st0" width="108.1" height="108"/>
<rect y="164" class="st0" width="110.4" height="110.3"/>
<rect x="167.3" y="164" class="st0" width="108.1" height="108"/>
<rect x="-360.9" y="170.6" class="st0" width="113.8" height="113.7"/>
<rect x="-531.6" y="170.6" class="st0" width="113.8" height="113.7"/>
<rect x="-247.2" class="st0" width="227.6" height="56.9"/>
<rect x="-247.2" y="113.7" class="st0" width="227.6" height="56.9"/>
<rect x="-247.2" y="227.4" class="st0" width="227.6" height="56.9"/>
<rect x="-531.6" y="454.8" class="st0" width="512" height="57.2"/>
<rect x="-531.6" y="341.1" class="st0" width="512" height="56.9"/>
<rect x="275.7" class="st0" width="236.3" height="55.8"/>
<rect x="275.7" y="108" class="st0" width="236.3" height="55.8"/>
<rect x="275.7" y="216.3" class="st0" width="236.3" height="55.8"/>
<rect y="442.7" class="st0" width="512" height="69.3"/>
<rect y="324.3" class="st0" width="512" height="66.1"/>
</svg>
